<?xml version="1.0" encoding="UTF-8"?>
<svg version="1.1" xmlns="http://www.w3.org/2000/svg" width="1024" height="1024">
<path d="M0 0 C4.16581558 1.05681457 6.74694979 3.16668831 8.94921875 6.84375 C9.28308594 7.69453125 9.61695313 8.5453125 9.9609375 9.421875 C10.37214844 10.46730469 10.78335938 11.51273438 11.20703125 12.58984375 C12.38684061 15.83748194 13.44556226 19.11863334 14.49609375 22.41015625 C21.33011922 43.81162251 29.44013962 57.40632583 49.859375 68.2578125 C54.54504189 70.66429342 59.31488518 72.88483835 64.08496094 75.11791992 C83.40947153 84.1807338 83.40947153 84.1807338 91.6484375 91.671875 C92.60621094 92.53425781 93.56398438 93.39664063 94.55078125 94.28515625 C107.74640668 106.60004836 114.1644341 121.51242064 118.6484375 138.671875 C121.98769585 138.671875 124.00622883 135.865928 126.3984375 133.734375 C150.63205386 112.79934526 178.60004339 105.37878323 210.26220703 105.29101562 C222.6925753 105.2334543 234.3432413 103.57693018 245.3984375 97.421875 C246.36265625 96.90109375 247.326875 96.3803125 248.3203125 95.84375 C258.51063981 89.1937242 266.74074611 80.73033641 275.14453125 72.00976562 C276.02753906 71.10806641 276.91054688 70.20636719 277.8203125 69.27734375 C278.6050293 68.46418701 279.38974609 67.65103027 280.19824219 66.81323242 C283.31555268 64.08884718 286.57964121 61.88103639 290.7734375 61.45703125 C297.06256361 62.38729782 301.04154194 64.54382413 304.9609375 69.734375 C314.96925409 87.15625944 304.87238464 118.51116498 300.06738281 136.48413086 C287.62174602 180.79382847 259.83815169 216.76133415 219.71508789 239.43847656 C200.20904327 250.08809498 179.62692207 256.12920012 157.70605469 259.24121094 C150.68720249 260.17961828 150.68720249 260.17961828 144.6484375 263.671875 C143.44147293 267.2927687 143.65225542 270.01545327 143.796875 273.8359375 C144.50925211 298.54394113 141.71741796 321.51933383 136.6484375 345.671875 C136.47445435 346.50799316 136.30047119 347.34411133 136.12121582 348.20556641 C118.48275519 432.6640614 84.89284707 510.43667475 25.8125 574.328125 C23.29330864 577.0564911 20.85527034 579.8476557 18.421875 582.65234375 C16.3802405 584.97728877 14.29509401 587.25999337 12.2109375 589.546875 C7.80556867 594.42154429 3.69117702 599.49452466 -0.3515625 604.671875 C4.86472899 609.82542759 10.36692862 611.55548384 17.2734375 613.734375 C30.5153179 618.12126708 43.22799423 623.39889536 55.97216797 629.05419922 C59.17905696 630.47246264 62.40177203 631.85097491 65.62950134 633.22103882 C68.29095446 634.35384629 70.94540162 635.50247164 73.59872437 636.6541748 C74.86468622 637.20023113 76.13322001 637.74036949 77.40444946 638.27404785 C84.78787237 641.38169051 90.08994133 643.96119684 94.6484375 650.671875 C96.86763587 657.32947012 96.57147475 664.57519875 93.7109375 670.984375 C89.11759025 678.97782566 82.12130976 683.21252622 73.4296875 685.76953125 C46.77874664 692.12941486 19.57887675 693.87607759 -7.6640625 691.421875 C-8.4080127 691.35562927 -9.15196289 691.28938354 -9.91845703 691.22113037 C-31.73688756 689.25053513 -55.63119726 687.04185163 -75.1875 676.39453125 C-77.29597064 675.46306542 -77.29597064 675.46306542 -79.234375 676.21484375 C-82.24444823 678.28635171 -85.04091695 680.59270167 -87.8515625 682.921875 C-162.31201227 743.26638178 -261.35454107 762.94019359 -355.46875 753.359375 C-384.85160832 750.03189256 -413.31233441 744.11901886 -441.3515625 734.671875 C-442.8370459 734.17179932 -442.8370459 734.17179932 -444.35253906 733.66162109 C-486.65246504 719.16179572 -526.05181023 695.9348492 -560.78320312 667.93603516 C-562.26479093 666.74181634 -563.75328465 665.55617994 -565.2421875 664.37109375 C-571.15686663 659.61400182 -576.78100663 654.61591725 -582.33203125 649.4453125 C-584.54982161 647.38446771 -586.82175188 645.39963272 -589.1171875 643.42578125 C-593.92440613 639.23577872 -598.41728435 634.75268601 -602.9140625 630.234375 C-603.72552734 629.42677734 -604.53699219 628.61917969 -605.37304688 627.78710938 C-610.24090871 622.91138981 -614.87904866 617.91102423 -619.3515625 612.671875 C-620.1971875 611.70765625 -621.0428125 610.7434375 -621.9140625 609.75 C-634.13039673 595.57591989 -645.35488324 580.4922472 -655.3515625 564.671875 C-655.70847168 564.10823242 -656.06538086 563.54458984 -656.43310547 562.96386719 C-692.9330329 504.81031203 -716.27895688 434.55915596 -716.5546875 365.48046875 C-716.56038757 364.33691422 -716.56608765 363.19335968 -716.57196045 362.01515198 C-716.58135729 359.60068672 -716.58792312 357.18620895 -716.59179688 354.77172852 C-716.6013978 351.17114208 -716.63242974 347.57115355 -716.6640625 343.97070312 C-716.76040754 323.08603475 -715.0661156 302.47819296 -710.6015625 282.046875 C-710.34407227 280.84579102 -710.08658203 279.64470703 -709.82128906 278.40722656 C-704.1605597 252.68590527 -695.7281382 227.84623993 -683.34033203 204.55224609 C-682.31451806 202.60142654 -681.32897666 200.63369536 -680.34765625 198.66015625 C-672.10948818 182.30896172 -661.68877031 167.03090946 -650.3515625 152.671875 C-649.63871094 151.76695312 -648.92585937 150.86203125 -648.19140625 149.9296875 C-633.9027867 132.13821413 -617.84662737 115.1102737 -599.3515625 101.671875 C-598.37002197 100.94774414 -598.37002197 100.94774414 -597.36865234 100.20898438 C-529.75162653 50.45818096 -442.7824712 38.24136384 -361.00585938 50.29199219 C-358.60497929 50.65849543 -356.20626759 51.03963816 -353.81054688 51.43847656 C-340.98174124 53.48062843 -331.89721354 51.16222165 -319.7890625 46.671875 C-318.41180697 46.17166599 -317.03411409 45.67265964 -315.65600586 45.17480469 C-310.38310358 43.26560864 -305.12204128 41.32459977 -299.86035156 39.38476562 C-263.20947425 25.88702589 -215.67304161 8.53986247 -176.62890625 22.65625 C-173.37347943 24.19238607 -170.69112826 25.94238161 -168.3515625 28.671875 C-167.8515625 31.609375 -167.8515625 31.609375 -168.3515625 34.671875 C-171.60978739 37.6615007 -175.08251923 39.68239263 -178.9765625 41.734375 C-191.03106202 48.68204221 -200.89755033 59.68168097 -204.87890625 73.19921875 C-207.13018466 84.9765678 -204.65871101 94.95126007 -198.1640625 104.859375 C-192.21615907 112.81078274 -184.80661794 118.16530615 -176.56665039 123.54345703 C-162.72994383 132.60906155 -149.67917015 142.65058378 -137.3515625 153.671875 C-136.45050781 154.47367188 -135.54945313 155.27546875 -134.62109375 156.1015625 C-133.01888436 157.53734084 -131.42165617 158.97871208 -129.83119202 160.42749023 C-128.33892405 161.77818535 -126.83801447 163.11954376 -125.32078552 164.44213867 C-117.24847 171.52494161 -109.74814708 179.17639442 -102.18519783 186.79364014 C-99.65120999 189.345217 -97.11352514 191.8930646 -94.57481384 194.43994141 C-87.3636542 201.67538152 -80.15820864 208.91649191 -72.95727539 216.16210938 C-68.53451206 220.61180067 -64.10677008 225.05648862 -59.67602348 229.49822998 C-58.00015418 231.18026361 -56.32617856 232.86418639 -54.65422249 234.55010986 C-46.22120704 243.05297112 -37.90173158 251.41052752 -28.3515625 258.671875 C-27.59221405 259.2598436 -26.8328656 259.84781219 -26.05050659 260.45359802 C0.52489853 281.47572463 0.52489853 281.47572463 31.6484375 291.671875 C36.53421674 287.81639753 38.03598632 283.81730211 39.76171875 278.08203125 C40.15063545 276.84881386 40.15063545 276.84881386 40.54740906 275.59068298 C41.08989202 273.85906881 41.62482335 272.12507269 42.15258789 270.38891602 C42.95897971 267.74080421 43.79089514 265.10176775 44.62695312 262.46289062 C45.15256827 260.77391183 45.67670704 259.08447272 46.19921875 257.39453125 C46.44601883 256.60998062 46.69281891 255.82542999 46.94709778 255.0171051 C48.2139712 250.81023824 49.12434302 247.11311382 48.6484375 242.671875 C45.49279942 238.01804613 41.75443427 235.08199271 37.0859375 231.984375 C30.63060541 227.52389632 24.8519331 222.64973535 19.21533203 217.1875 C18.13155481 216.13918448 17.04090268 215.097947 15.94482422 214.0625 C-5.68312593 193.62250515 -20.60722472 168.38402161 -28.6640625 139.734375 C-28.89448242 138.92653564 -29.12490234 138.11869629 -29.36230469 137.28637695 C-33.61779827 121.1814271 -34.91195257 104.8922923 -34.7890625 88.296875 C-34.78400192 86.95840515 -34.78400192 86.95840515 -34.77883911 85.59289551 C-34.70440778 71.96389445 -34.10061326 58.85599255 -30.3515625 45.671875 C-30.10486816 44.79241211 -29.85817383 43.91294922 -29.60400391 43.00683594 C-17.01918562 -0.48765575 -17.01918562 -0.48765575 0 0 Z M-644.3515625 280.671875 C-651.78329604 290.66627528 -648.22066025 306.33322051 -647.1015625 317.859375 C-647.0346521 318.55673767 -646.9677417 319.25410034 -646.89880371 319.97259521 C-642.57211036 364.57403609 -631.34518677 407.65474375 -613.3515625 448.671875 C-612.86929199 449.77257324 -612.38702148 450.87327148 -611.89013672 452.00732422 C-596.09232285 487.74655539 -576.26034491 522.34937436 -549.6171875 551.1953125 C-547.76923731 553.21531322 -545.97981783 555.26458981 -544.1953125 557.33984375 C-539.86647397 562.29799499 -535.25652659 566.95881235 -530.6015625 571.609375 C-529.71339844 572.4967334 -528.82523438 573.3840918 -527.91015625 574.29833984 C-521.97657249 580.17654059 -515.95562647 585.55972438 -509.3515625 590.671875 C-507.49425846 592.25152691 -505.64029117 593.83510757 -503.7890625 595.421875 C-491.89351883 605.34510055 -479.03917303 614.15258326 -466.03955078 622.56054688 C-464.47439769 623.59100347 -462.94063112 624.66870833 -461.41015625 625.75 C-447.28307571 635.30600122 -429.16189197 641.15620332 -412.3515625 643.671875 C-411.54332031 643.79949219 -410.73507812 643.92710937 -409.90234375 644.05859375 C-407.71451016 644.35259582 -405.55494595 644.54203276 -403.3515625 644.671875 C-402.1140625 644.75115234 -402.1140625 644.75115234 -400.8515625 644.83203125 C-388.32656762 645.25074474 -376.17409095 642.67955673 -366.6640625 634.16015625 C-363.63431086 630.88079439 -362.3515625 628.10998486 -362.3515625 623.671875 C-363.86719537 616.4434721 -367.56441818 611.01217238 -371.50927734 604.90014648 C-375.62874939 598.43153534 -378.69835796 591.88719032 -381.3515625 584.671875 C-381.69058594 583.7746875 -382.02960938 582.8775 -382.37890625 581.953125 C-384.22993119 576.28915928 -384.67387739 570.77621912 -384.7890625 564.859375 C-384.82265869 563.78272583 -384.82265869 563.78272583 -384.85693359 562.68432617 C-384.83417483 557.54623533 -383.63839246 554.587593 -380.3515625 550.671875 C-372.74829338 547.10299358 -364.62267706 548.737216 -356.9387207 551.33203125 C-324.90292972 563.00315182 -296.65283595 584.72879361 -269.3515625 604.671875 C-268.5471875 605.25936523 -267.7428125 605.84685547 -266.9140625 606.45214844 C-255.46827008 614.82369519 -244.11545165 623.29491155 -233.01171875 632.1171875 C-224.42118612 638.91776123 -215.93852238 645.31779097 -206.3515625 650.671875 C-205.46339844 651.18878906 -204.57523437 651.70570313 -203.66015625 652.23828125 C-181.95614599 664.06279893 -155.79499242 668.06765538 -131.3515625 668.671875 C-130.28679688 668.70023438 -129.22203125 668.72859375 -128.125 668.7578125 C-121.70976742 668.83740596 -115.31863399 668.56995744 -108.9140625 668.234375 C-108.15625488 668.19521973 -107.39844727 668.15606445 -106.61767578 668.11572266 C-102.46658568 667.87522665 -98.44584552 667.44401395 -94.3515625 666.671875 C-97.53518582 663.25358657 -101.08960389 660.6265483 -104.9140625 657.984375 C-111.30662085 653.48892017 -117.37648569 648.71282008 -123.3515625 643.671875 C-124.4007238 642.7977954 -125.45021567 641.92411247 -126.5 641.05078125 C-138.07892262 631.38378364 -148.98402445 621.13049768 -159.6640625 610.484375 C-160.14028046 610.01083588 -160.61649841 609.53729675 -161.10714722 609.04940796 C-166.74757978 603.43304396 -172.1923204 597.73252461 -177.3515625 591.671875 C-178.30069941 590.5886296 -179.25116695 589.50654827 -180.203125 588.42578125 C-187.37218061 580.20662846 -194.07228703 571.69379393 -200.62011719 562.97412109 C-202.41103207 560.59280026 -204.21263121 558.2198416 -206.015625 555.84765625 C-219.23598091 538.40690302 -231.55734878 520.42691782 -243.65982056 502.20092773 C-251.53201727 490.34767029 -259.5317924 478.59787545 -267.73242188 466.96826172 C-269.15744426 464.94718806 -270.57579139 462.92165182 -271.9921875 460.89453125 C-282.17131832 446.40319186 -292.91568387 432.19622082 -304.3515625 418.671875 C-304.80982422 418.1248291 -305.26808594 417.5777832 -305.74023438 417.01416016 C-311.36629419 410.30349258 -317.0480178 403.79447237 -323.3359375 397.6875 C-325.30672621 395.71671129 -327.11289307 393.67257947 -328.9140625 391.546875 C-331.82710873 388.14944233 -334.98365927 385.26803873 -338.39453125 382.37890625 C-340.25137175 380.75926693 -341.95553742 379.07064209 -343.6640625 377.296875 C-347.31623874 373.58698943 -351.29998712 370.36696676 -355.35546875 367.109375 C-357.8943476 365.04384645 -360.37552973 362.92775722 -362.84472656 360.7800293 C-423.12224984 308.61390267 -561.91977409 234.98180859 -644.3515625 280.671875 Z M-181.8515625 311.5234375 C-184.26510682 314.92076347 -185.31087361 317.08188615 -185.6015625 321.296875 C-183.93398665 325.79932978 -181.42919007 328.20081739 -177.3515625 330.671875 C-172.46047874 332.69086888 -167.74859414 333.15474274 -162.5390625 333.609375 C-150.70416865 334.8236677 -141.97441385 337.24332397 -133.74609375 346.47265625 C-127.92114763 354.17661725 -127.44538134 362.21545838 -128.58886719 371.62451172 C-128.78245949 373.0070779 -128.97782197 374.38939718 -129.17480469 375.77148438 C-131.11754149 389.6158418 -130.55787782 402.73696413 -122.3515625 414.671875 C-111.5681255 427.66188718 -97.12045289 437.98269862 -80.171875 440.4453125 C-67.24788628 441.48352766 -52.25459118 438.17473786 -41.4140625 430.734375 C-38.09635309 427.80385822 -36.38786308 425.03914172 -35.3515625 420.671875 C-36.0322294 414.59231497 -38.20499342 409.07184651 -40.8515625 403.609375 C-41.19832031 402.88403564 -41.54507813 402.15869629 -41.90234375 401.41137695 C-45.80062597 393.45898453 -50.4955283 386.06455342 -55.3515625 378.671875 C-56.00898437 377.64707031 -56.66640625 376.62226563 -57.34375 375.56640625 C-67.78949564 359.50769771 -79.67951624 342.32472102 -94.62109375 330.125 C-96.36758665 328.65841905 -97.86416513 327.0927971 -99.4140625 325.421875 C-114.23708764 310.46378813 -133.94898784 300.82072698 -155.1015625 300.171875 C-165.71722969 300.49695879 -175.03382868 303.10779731 -181.8515625 311.5234375 Z M-176.3515625 357.671875 C-178.70467182 361.08767885 -179.3515625 363.01644839 -179.3515625 367.171875 C-177.93443054 372.13183686 -175.61707837 374.87508655 -171.5390625 378.109375 C-168.0075916 379.01746752 -164.79253987 378.71539597 -161.3515625 377.671875 C-158.39212781 375.85166356 -155.9313582 373.8314664 -154.3515625 370.671875 C-153.77438893 365.94094412 -153.91739625 362.52470157 -156.1015625 358.234375 C-159.51894836 354.34235221 -161.04083396 353.7987197 -166.2265625 353.296875 C-170.57073687 353.42631036 -173.06083799 354.76379287 -176.3515625 357.671875 Z " fill="#4C6AFD" transform="translate(716.3515625,127.328125)"/>
</svg>
