<svg width="25" height="24" viewBox="0 0 25 24" fill="none" xmlns="http://www.w3.org/2000/svg">
<path d="M12.4482 5.3465H14.6271V15.3329C13.511 15.544 12.6894 15.6271 11.8005 15.6271C9.13929 15.6243 7.75403 14.4354 7.75403 12.1521C7.75403 9.95206 9.22342 8.52427 11.5004 8.52427C11.8538 8.52427 12.1229 8.55208 12.4482 8.63538V5.3465ZM12.5246 10.435C12.2694 10.3517 12.0591 10.3239 11.7899 10.3239C10.6879 10.3239 10.0513 10.9961 10.0513 12.1742C10.0513 13.3211 10.6598 13.9545 11.7759 13.9545C12.017 13.9545 12.2133 13.9409 12.5246 13.8992V10.435V10.435Z" fill="#2BA977"/>
<path d="M18.1901 8.79238V13.7924C18.1901 15.5143 18.0612 16.3424 17.6826 17.0563C17.3292 17.7427 16.8638 18.1755 15.9019 18.6535L13.8801 17.7008C14.842 17.2538 15.3074 16.8588 15.6047 16.256C15.9159 15.6397 16.0141 14.9257 16.0141 13.048V8.79242H18.1901V8.79238ZM15.7945 5.3465H17.9734V7.56039H15.7945V5.3465Z" fill="#2BA977"/>
</svg>
