<?xml version="1.0" standalone="no"?>
<!DOCTYPE svg PUBLIC "-//W3C//DTD SVG 20010904//EN"
 "http://www.w3.org/TR/2001/REC-SVG-20010904/DTD/svg10.dtd">
<svg version="1.0" xmlns="http://www.w3.org/2000/svg"
 width="28.000000pt" height="28.000000pt" viewBox="0 0 28.000000 28.000000"
 preserveAspectRatio="xMidYMid meet">

<g transform="translate(0.000000,28.000000) scale(0.100000,-0.100000)"
fill="#000000" stroke="none">
<path d="M40 180 c-28 -28 -27 -84 2 -104 12 -9 30 -16 39 -16 17 0 56 37 47
45 -3 3 -11 -1 -18 -10 -15 -18 -51 -20 -68 -3 -22 22 -12 28 44 28 l56 0 -6
28 c-13 52 -60 68 -96 32z m61 0 c36 -20 23 -40 -26 -40 -42 0 -45 2 -35 19 8
16 21 26 38 30 2 1 12 -4 23 -9z"/>
<path d="M165 169 c24 -29 25 -33 10 -53 -27 -37 -36 -56 -28 -56 5 0 17 14
27 32 l19 31 28 -34 c32 -38 40 -28 9 11 -25 31 -25 36 1 71 25 36 16 38 -15
3 l-22 -26 -17 26 c-10 14 -22 26 -28 26 -6 0 1 -14 16 -31z"/>
</g>
</svg>
