<svg width="25" height="24" viewBox="0 0 25 24" fill="none" xmlns="http://www.w3.org/2000/svg">
<path d="M10.7498 18.6667C11.9765 18.6667 12.972 17.6711 12.972 16.4444V14.2222H10.7498C9.52314 14.2222 8.52759 15.2178 8.52759 16.4444C8.52759 17.6711 9.52314 18.6667 10.7498 18.6667Z" fill="#0ACF83"/>
<path d="M8.52759 12C8.52759 10.7733 9.52314 9.77777 10.7498 9.77777H12.972V14.2222H10.7498C9.52314 14.2222 8.52759 13.2267 8.52759 12Z" fill="#A259FF"/>
<path d="M8.52759 7.55556C8.52759 6.3289 9.52314 5.33334 10.7498 5.33334H12.972V9.77779H10.7498C9.52314 9.77779 8.52759 8.78223 8.52759 7.55556Z" fill="#F24E1E"/>
<path d="M12.972 5.33334H15.1943C16.4209 5.33334 17.4165 6.3289 17.4165 7.55556C17.4165 8.78223 16.4209 9.77779 15.1943 9.77779H12.972V5.33334Z" fill="#FF7262"/>
<path d="M17.4165 12C17.4165 13.2267 16.4209 14.2222 15.1943 14.2222C13.9676 14.2222 12.972 13.2267 12.972 12C12.972 10.7733 13.9676 9.77777 15.1943 9.77777C16.4209 9.77777 17.4165 10.7733 17.4165 12Z" fill="#1ABCFE"/>
</svg>
