<svg width="25" height="24" viewBox="0 0 25 24" fill="none" xmlns="http://www.w3.org/2000/svg">
<path d="M14.4795 10.1493L13.1461 11.3909L11.9083 8.89316L12.5478 7.45703C12.7094 7.17056 12.9737 7.16677 13.1353 7.45703L14.4795 10.1493Z" fill="#FFA000"/>
<path d="M13.1467 11.3903L8.15881 16.0295L11.9089 8.89316L13.1467 11.3903Z" fill="#F57F17"/>
<path d="M15.9416 8.25048C16.1805 8.02292 16.4265 8.09967 16.4886 8.4229L17.7853 15.9668L13.4845 18.5488C13.3337 18.6332 12.9337 18.6661 12.9337 18.6661C12.9337 18.6661 12.5699 18.6218 12.4305 18.5451L8.15881 16.0295L15.9416 8.25048Z" fill="#FFCA28"/>
<path d="M11.9089 8.89315L8.15881 16.0295L9.83007 5.59874C9.89277 5.27551 10.076 5.24254 10.2414 5.52901L11.9089 8.89315Z" fill="#FFA000"/>
</svg>
