<svg width="25" height="24" viewBox="0 0 25 24" fill="none" xmlns="http://www.w3.org/2000/svg">
<path d="M12.9721 5.49789C9.29067 5.49789 6.30542 8.48263 6.30542 12.1646C6.30542 15.1102 8.21563 17.6091 10.8645 18.4906C11.1977 18.5523 11.32 18.346 11.32 18.1699C11.32 18.011 11.3138 17.4858 11.311 16.9287C9.45626 17.332 9.0649 16.1421 9.0649 16.1421C8.76165 15.3715 8.32469 15.1667 8.32469 15.1667C7.71985 14.7529 8.37029 14.7614 8.37029 14.7614C9.03975 14.8084 9.39226 15.4484 9.39226 15.4484C9.98686 16.4676 10.9518 16.1729 11.3323 16.0026C11.3921 15.5717 11.5649 15.2776 11.7555 15.1111C10.2748 14.9425 8.71814 14.3709 8.71814 11.8164C8.71814 11.0886 8.97858 10.4938 9.40507 10.027C9.33585 9.85905 9.10767 9.18101 9.46965 8.26271C9.46965 8.26271 10.0295 8.08353 11.3035 8.94609C11.8352 8.79833 12.4055 8.72429 12.9721 8.72178C13.5387 8.72429 14.1094 8.79833 14.6422 8.94609C15.9147 8.08353 16.4737 8.26271 16.4737 8.26271C16.8366 9.18101 16.6083 9.85905 16.5391 10.027C16.9665 10.4938 17.2252 11.0885 17.2252 11.8164C17.2252 14.377 15.6656 14.9408 14.1811 15.1058C14.4202 15.3127 14.6333 15.7184 14.6333 16.3404C14.6333 17.2324 14.6255 17.9503 14.6255 18.1699C14.6255 18.3473 14.7455 18.5552 15.0835 18.4897C17.7309 17.6072 19.6388 15.1092 19.6388 12.1646C19.6388 8.48263 16.6539 5.49789 12.9721 5.49789Z" fill="#161614"/>
<path d="M8.80234 14.9948C8.7877 15.0279 8.73552 15.0378 8.68809 15.0151C8.63973 14.9934 8.61254 14.9482 8.62823 14.9149C8.6426 14.8808 8.69479 14.8713 8.74305 14.8942C8.79151 14.9159 8.81912 14.9615 8.80234 14.9948ZM9.13027 15.2874C9.09849 15.3168 9.03632 15.3031 8.99412 15.2566C8.95052 15.2101 8.94236 15.148 8.97462 15.118C9.0074 15.0886 9.06769 15.1023 9.1114 15.1488C9.15501 15.1959 9.16348 15.2576 9.13022 15.2874L9.13027 15.2874ZM9.35526 15.6617C9.31437 15.6901 9.24755 15.6635 9.2063 15.6042C9.16546 15.545 9.16546 15.4739 9.20719 15.4454C9.2486 15.4169 9.31437 15.4425 9.3562 15.5013C9.39698 15.5616 9.39698 15.6327 9.35521 15.6618L9.35526 15.6617ZM9.73569 16.0953C9.69914 16.1356 9.62134 16.1248 9.56435 16.0698C9.50611 16.0161 9.48984 15.9398 9.5265 15.8995C9.56346 15.8591 9.64173 15.8704 9.69914 15.925C9.75703 15.9786 9.7747 16.0555 9.73574 16.0953H9.73569ZM10.2274 16.2417C10.2113 16.2939 10.1364 16.3176 10.0609 16.2955C9.98546 16.2726 9.9361 16.2115 9.95132 16.1587C9.96701 16.1061 10.0423 16.0814 10.1184 16.1052C10.1937 16.1279 10.2431 16.1886 10.2274 16.2417H10.2274ZM10.7871 16.3038C10.7889 16.3588 10.7249 16.4044 10.6456 16.4054C10.5659 16.4071 10.5014 16.3626 10.5006 16.3085C10.5006 16.253 10.5632 16.2078 10.6429 16.2065C10.7221 16.205 10.7871 16.2492 10.7871 16.3038ZM11.3368 16.2827C11.3463 16.3364 11.2912 16.3915 11.2125 16.4061C11.1351 16.4202 11.0635 16.3871 11.0536 16.334C11.044 16.279 11.1001 16.2239 11.1774 16.2096C11.2562 16.1959 11.3268 16.2282 11.3368 16.2827Z" fill="#161614"/>
</svg>
