<svg width="25" height="24" viewBox="0 0 25 24" fill="none" xmlns="http://www.w3.org/2000/svg">
<path d="M24.972 12C24.972 18.6274 19.5995 24 12.972 24C6.34463 24 0.972046 18.6274 0.972046 12C0.972046 5.37258 6.34463 0 12.972 0C19.5995 0 24.972 5.37258 24.972 12Z" fill="white"/>
<path d="M12.6879 21.9814C12.4267 21.9357 12.156 21.8117 12.0026 21.6745C11.898 21.5668 11.8397 21.4202 11.8359 21.2698C11.8359 21.1164 11.9142 20.9009 12.0383 20.686C12.1134 20.5651 12.1723 20.4348 12.2143 20.2976C12.2406 20.2031 12.2957 20.0496 12.3383 19.9519L12.4135 19.7727L12.4329 18.5756C12.4429 17.9135 12.4624 17.3002 12.4786 17.205C12.5212 16.9306 12.5927 16.6632 12.6872 16.4026L12.7593 16.2297L12.6547 16.1677C12.5601 16.1088 12.4818 16.0274 12.1717 15.6584C11.7902 15.208 11.2878 14.9599 10.5762 14.8754C10.3444 14.8528 10.1095 14.8359 9.87463 14.8265C8.83039 14.7777 8.23342 14.559 7.69532 14.0303C7.29379 13.6357 7.08519 13.1753 7.00063 12.4969C6.88662 11.5798 6.75946 11.11 6.52455 10.7285C6.46567 10.6339 6.40052 10.5456 6.32535 10.4641L6.23076 10.3696L6.02217 10.5036C5.90816 10.5788 5.74779 10.6734 5.66949 10.716C5.40828 10.8594 5.16022 11.0192 4.92218 11.192C4.33836 11.6161 3.70192 12.148 3.353 12.4969C3.1964 12.6535 3.11496 12.7218 3.07863 12.7155C2.84059 12.6798 3.02288 11.6487 3.41126 10.8719C3.90738 9.8703 4.7424 8.94696 5.70833 8.32368C6.50137 7.81127 7.78365 7.10655 8.37687 6.85849C9.4305 6.41812 10.7942 5.94142 11.7276 5.68709C11.9236 5.63134 12.0439 5.58248 12.1253 5.52735C12.3083 5.40019 12.4874 5.33818 12.6929 5.33504C12.8658 5.33191 12.8821 5.32878 13.0487 5.21728C13.2448 5.09012 13.303 5.08322 13.4991 5.15213L13.6262 5.19786L13.7828 5.09012L13.9394 4.9855L14.1643 4.98864C14.3372 4.99177 14.4155 4.9855 14.4907 4.95293C14.5853 4.91033 14.5884 4.90407 14.6147 4.74746C14.6736 4.40795 14.6799 4.23819 14.6442 4.03272C14.5984 3.76211 14.5922 2.71161 14.6379 2.50552C14.6868 2.28377 14.7193 2.23804 14.886 2.1566C15.134 2.03571 15.3201 2 15.7473 2C16.2691 2 16.5334 2.07204 16.7295 2.26122C16.9055 2.43097 16.935 2.82875 16.8435 3.76211C16.7878 4.3002 16.7815 4.45054 16.7978 4.80259C16.8041 5.02747 16.8203 5.23983 16.8272 5.26927C16.8404 5.32502 16.8535 5.32815 17.0427 5.33129C17.2288 5.33442 17.2613 5.34444 17.4374 5.4359C17.6071 5.52422 17.7343 5.63197 17.7606 5.71027C17.7637 5.72655 17.7932 5.72655 17.8452 5.71027C17.946 5.68083 18.0343 5.7134 18.1064 5.80172C18.149 5.85748 18.1747 5.86687 18.273 5.86687C18.4071 5.86687 18.4559 5.89945 18.5668 6.06294C18.6188 6.13811 18.6908 6.19324 18.7723 6.22957C18.9552 6.32102 19.2032 6.57535 19.2978 6.77768C19.4444 7.07774 19.4738 7.42665 19.3824 7.73986C19.3498 7.85762 19.3498 7.86076 19.4181 7.97476C19.5615 8.21969 19.6142 8.51975 19.5553 8.77407L19.5227 8.92441L19.6204 9.02213C20.1065 9.50823 20.0345 10.3013 19.4413 11.0091C19.3793 11.0843 19.3041 11.2014 19.2746 11.2735C19.1606 11.5767 19.0297 11.789 18.8606 11.965L18.6877 12.1411H18.5117C18.3356 12.1411 18.0876 12.0822 17.9372 12.0039C17.8752 11.9713 17.8721 11.9713 17.8852 12.0101C17.9247 12.1536 18.0224 12.7374 18.055 13.0606C18.107 13.5568 18.0907 14.2778 18.0224 14.5878C17.9736 14.8165 17.8884 15.0382 17.7744 15.2437C17.7092 15.3483 17.7061 15.3709 17.7186 15.498C17.738 15.6772 17.6961 15.9779 17.624 16.1764C17.5357 16.4082 17.5031 16.516 17.4837 16.6331C17.4674 16.734 17.4674 16.734 17.5395 16.734C17.6341 16.734 17.686 16.7897 17.686 16.9006C17.686 16.9494 17.6435 17.2138 17.5915 17.4844C17.448 18.2449 17.438 18.3294 17.438 19.0667C17.4349 19.8272 17.4349 19.8203 17.6077 19.9343L17.9961 20.1855C18.3288 20.4073 18.6877 20.5902 19.0629 20.7336C19.6079 20.9491 19.6831 21.0042 19.6831 21.1872C19.6831 21.2686 19.6668 21.298 19.5985 21.3632C19.3899 21.5655 18.9783 21.6112 18.1496 21.5229C17.7186 21.4834 17.2851 21.4609 16.8542 21.4609C15.7122 21.4446 15.5456 21.4051 15.3959 21.1214C15.3113 20.9585 15.3276 20.7462 15.4447 20.3972C15.4967 20.2438 15.5424 20.0872 15.5819 19.9274C15.6602 19.5491 15.6082 19.0987 15.4253 18.59L15.2687 18.1559C15.1152 17.7155 15.0307 16.9094 15.1221 16.7271C15.1384 16.6914 15.1679 16.6845 15.2462 16.6876L15.3439 16.6976L15.4253 16.5279C15.4873 16.3938 15.5556 16.3061 15.7416 16.1201L15.9797 15.882L15.9665 15.7286C15.9565 15.582 15.7642 14.8704 15.7379 14.8735C15.7279 14.8735 15.6759 14.9455 15.617 15.0364C15.4735 15.2519 15.1572 15.5845 14.9774 15.7054C14.8991 15.7574 14.834 15.8194 14.834 15.8394C14.8308 15.9278 14.7557 16.1006 14.6642 16.2209C14.5759 16.3387 14.5696 16.3581 14.5828 16.4621C14.6053 16.6156 14.5565 17.1079 14.4982 17.366C14.4462 17.5552 14.3742 17.7412 14.2827 17.9204C14.0578 18.3871 13.8881 18.8043 13.8455 18.9972C13.8129 19.1832 13.7966 19.3724 13.7866 19.5585C13.7766 19.7802 13.754 19.9957 13.7377 20.0414C13.7152 20.1035 13.7152 20.1523 13.7346 20.2469C13.7509 20.3152 13.7609 20.4687 13.7572 20.5896C13.754 20.7562 13.7672 20.8639 13.816 21.0594C13.9006 21.392 13.9169 21.6012 13.8781 21.7252C13.8517 21.8035 13.8261 21.833 13.7377 21.8756C13.5417 21.9764 12.9873 22.0322 12.6872 21.9802L12.6879 21.9814ZM13.4803 21.714C13.5943 21.6814 13.6926 21.5837 13.6926 21.4953C13.6926 21.4559 13.6601 21.3419 13.6206 21.241C13.5423 21.0487 13.4082 20.5394 13.4082 20.4549C13.4082 20.4123 13.4114 20.4091 13.4765 20.4448L13.5486 20.4843V20.3929C13.5385 20.3083 13.5191 20.2262 13.4928 20.1448C13.4308 19.9587 13.4245 19.9556 13.0293 19.9324L12.7618 19.9193L12.6641 20.0139C12.6121 20.0696 12.5632 20.1279 12.5237 20.1968C12.4811 20.2814 12.4649 20.4091 12.4912 20.438C12.4974 20.448 12.5632 20.438 12.6346 20.4217C12.6772 20.4085 12.7192 20.4023 12.7649 20.3991C12.7649 20.4023 12.6929 20.4611 12.602 20.5231C12.2105 20.8169 12.0734 20.9961 12.0734 21.2247C12.0734 21.4628 12.2982 21.6488 12.6509 21.7046C12.8921 21.7403 13.3619 21.7503 13.4797 21.7146L13.4803 21.714ZM18.7885 21.3256C18.8863 21.2078 18.8731 21.0876 18.7491 20.9504C18.677 20.8783 18.5956 20.8163 18.5041 20.7675C18.4127 20.7186 18.3212 20.6628 18.2298 20.6046C18.1577 20.5526 17.9297 20.4185 17.7205 20.3045C17.5702 20.2231 17.4236 20.1379 17.2801 20.0471L17.2212 20.0013V19.1043C17.2212 18.2204 17.2181 18.2073 17.1724 18.2204C16.9437 18.2825 16.5654 18.3119 16.0862 18.3019L15.5675 18.2956L15.6427 18.4785C15.783 18.8243 15.855 19.2879 15.855 19.8197C15.855 20.0189 15.8419 20.0903 15.793 20.2306C15.7667 20.2989 15.7442 20.3678 15.721 20.4361C15.711 20.4655 15.7473 20.4881 15.8807 20.5275C15.9784 20.557 16.1219 20.5864 16.2039 20.5958L16.3543 20.6121L16.338 20.7624C16.3217 20.9322 16.3411 21.1114 16.3837 21.1671C16.41 21.1997 16.5078 21.2128 16.9613 21.2323C17.3039 21.2485 17.676 21.2842 17.9692 21.3268C18.2235 21.3663 18.4979 21.3989 18.5793 21.3989C18.7165 21.402 18.7297 21.3957 18.7879 21.3268L18.7885 21.3256ZM13.5655 19.799C13.5786 19.789 13.5981 19.613 13.6049 19.4044C13.6313 18.8205 13.6538 18.7354 13.9476 18.0764C14.1888 17.5383 14.3166 17.0359 14.3065 16.6801L14.3003 16.4677L14.2088 16.5561C14.0196 16.7452 14.1499 16.4483 14.3754 16.184C14.5452 15.9816 14.6041 15.8708 14.6298 15.6916C14.6429 15.6196 14.6692 15.5839 14.7801 15.4993C15.2011 15.1798 15.5042 14.7751 15.7034 14.279C15.7492 14.1613 15.8663 13.7604 15.9647 13.3883C16.1476 12.6998 16.2453 12.4029 16.3336 12.2757C16.3662 12.2269 16.3793 12.2169 16.3731 12.2494C16.3211 12.4455 16.3048 12.5269 16.2622 12.7813C16.2359 12.941 16.187 13.2542 16.1545 13.4728C16.0924 13.9201 16.0273 14.207 15.939 14.4287L15.8801 14.5791L16.0367 14.9837C16.1996 15.3978 16.2747 15.6985 16.2879 15.9885L16.2979 16.1514L16.1707 16.1777C16.001 16.2071 15.8544 16.3017 15.7529 16.4389C15.642 16.5986 15.58 16.7296 15.6095 16.7584C15.6226 16.7715 15.7824 16.801 15.9653 16.8235C16.249 16.8561 16.3568 16.8561 16.732 16.8336C16.8949 16.8273 17.0552 16.811 17.215 16.7878C17.2507 16.7747 17.287 16.7033 17.3453 16.5172C17.4793 16.09 17.505 15.9397 17.4887 15.6396L17.4756 15.3753L17.5438 15.2869C17.7036 15.0846 17.8276 14.7194 17.8796 14.2916C17.9416 13.7697 17.8276 12.6767 17.6153 11.737C17.5144 11.2898 17.4718 11.0223 17.4718 10.8268V10.654L17.3121 10.6702C16.7377 10.7323 16.043 10.716 15.6189 10.6276C15.3871 10.5819 14.8033 10.409 14.6761 10.3533L14.5753 10.3075L14.5621 10.4215C14.5521 10.4836 14.5427 10.5456 14.5295 10.6107C14.5101 10.679 14.5164 10.6953 14.6373 10.8131C14.7876 10.9665 14.8333 11.0448 14.8333 11.1488C14.8333 11.214 14.7976 11.2666 14.6147 11.4558C14.4807 11.5961 14.3115 11.7464 14.1806 11.831L13.9683 11.9744L13.8768 12.2908C13.5504 13.449 13.4884 14.5027 13.7039 15.2562L13.7559 15.4454L13.6513 15.5757C13.2598 16.0681 13.028 16.4433 12.9923 16.6525C12.986 16.6951 12.9528 16.8317 12.9203 16.9595C12.8357 17.2827 12.7699 17.7556 12.7411 18.268C12.7217 18.6953 12.6923 19.1262 12.6565 19.5535L12.6403 19.6806L12.8031 19.7295C12.8946 19.7589 13.0318 19.7915 13.1101 19.8046C13.2567 19.8272 13.5279 19.8209 13.5699 19.7984L13.5655 19.799ZM16.7333 18.0043C16.9876 17.988 17.2194 17.9486 17.2651 17.9097C17.2845 17.8966 17.3077 17.8283 17.314 17.7594L17.3302 17.6354L17.1279 17.6811C16.9682 17.7137 16.8084 17.7331 16.6481 17.7462C16.2628 17.7625 15.8751 17.7525 15.493 17.7137C15.3658 17.6943 15.3658 17.6943 15.4046 17.8603C15.4372 17.9843 15.4441 17.9905 15.7767 18.0137C15.9985 18.0331 16.3086 18.03 16.7326 18.0037L16.7333 18.0043ZM16.5209 17.4368C16.8535 17.4074 17.2682 17.3359 17.3497 17.2933C17.376 17.2802 17.3985 17.2313 17.4085 17.1756L17.438 17.0027L17.4543 16.9213L17.3728 16.9375C17.0108 17.0127 16.7364 17.0353 16.1883 17.0353C15.6533 17.0353 15.5913 17.0321 15.451 16.9833C15.399 16.9607 15.3401 16.9476 15.2812 16.9438C15.2587 16.957 15.2549 17.143 15.275 17.2733C15.2881 17.3516 15.3013 17.3648 15.3796 17.3873C15.6276 17.4556 16.0455 17.4719 16.5215 17.433L16.5209 17.4368ZM10.466 14.4939C11.301 14.2527 12.3941 13.5442 13.288 12.6572C13.5786 12.3666 13.6143 12.3277 13.6532 12.1974L13.7052 12.0308C13.7114 12.0177 13.6594 11.9951 13.5912 11.9788C13.412 11.9362 13.2748 11.8322 13.2748 11.7377C13.2748 11.6819 13.2422 11.6268 13.1477 11.5253C12.9942 11.3524 12.9553 11.2772 12.9391 11.1112L12.9259 10.9772L12.743 10.8469C12.6384 10.7717 12.2732 10.5694 11.8848 10.3739C11.591 10.2305 11.301 10.0739 11.0172 9.90413C10.6908 9.68551 10.4722 9.42429 10.3482 9.11484C10.3256 9.05283 10.2962 9.00084 10.2862 9.00084C10.2599 9.00084 9.52571 9.70869 9.21251 10.0413C8.43951 10.8569 7.90768 11.5648 7.57129 12.2206C7.48673 12.3835 7.39527 12.5764 7.36896 12.6478L7.3201 12.7781L7.37898 12.9967C7.41469 13.1145 7.48986 13.3068 7.54874 13.4208C7.75421 13.8255 7.99914 14.0698 8.4038 14.269C8.83791 14.4845 9.22253 14.5597 9.86523 14.5496C10.211 14.5465 10.3125 14.5365 10.4653 14.4908L10.466 14.4939ZM3.87543 11.6324C4.42355 11.1463 5.18026 10.6145 6.10736 10.0632C6.71436 9.70117 9.06029 8.52664 10.1402 8.0468C10.3363 7.95848 10.5123 7.87704 10.5317 7.86765C10.5512 7.85449 10.6069 7.71418 10.6589 7.55757C10.8875 6.83343 11.0016 6.68998 11.4156 6.5954C11.4676 6.58224 11.4808 6.56595 11.4808 6.51396C11.4808 6.41937 11.5459 6.20075 11.6017 6.10303C11.6443 6.02786 11.6443 6.02473 11.6079 6.03475C11.5854 6.04102 11.4482 6.08048 11.3047 6.12308C9.31461 6.6975 7.57568 7.46048 6.07478 8.41326C4.47304 9.43118 3.5497 10.6514 3.28222 12.1129L3.2628 12.2206L3.45887 12.0283C3.56348 11.9206 3.75266 11.7445 3.87669 11.6368L3.87543 11.6324ZM18.6388 11.9099C18.7986 11.8285 19.0466 11.4533 19.1381 11.1563C19.1644 11.0517 19.2164 10.954 19.2916 10.8726C19.5327 10.6051 19.7319 10.119 19.7351 9.78636C19.7351 9.26769 19.4413 9.06849 19.014 9.29024C18.9583 9.31655 18.9132 9.33597 18.9063 9.3297C18.8838 9.30715 19.004 9.18939 19.1512 9.09793C19.3435 8.97077 19.3799 8.8956 19.3799 8.62499C19.3799 8.39634 19.3241 8.21406 19.1938 8.01172C19.1349 7.9234 19.1124 7.86514 19.1218 7.82881L19.1807 7.61019C19.2621 7.31953 19.2327 6.98691 19.1055 6.77518C18.9163 6.4557 18.6846 6.2991 18.3613 6.27279L18.1721 6.25964L18.283 6.38367C18.6125 6.73947 18.7723 7.18611 18.7071 7.56822C18.6745 7.76429 18.6451 7.80313 18.4559 7.8783L18.345 7.92403L18.3582 8.07437C18.3807 8.31929 18.3388 8.49845 18.1822 8.82794C18.1039 8.99457 18.045 9.14429 18.0519 9.16057C18.0713 9.21632 18.2868 9.32031 18.4565 9.36291L18.6232 9.40237L18.5186 9.43808C18.3814 9.48067 18.3519 9.54269 18.3519 9.76757C18.3519 9.97304 18.3814 10.0582 18.5311 10.2831C18.5994 10.3808 18.6451 10.4823 18.652 10.5406C18.6651 10.632 18.662 10.6383 18.5868 10.6646C18.5023 10.6872 18.4139 10.7041 18.3256 10.7072C18.0187 10.7266 17.9961 10.7366 17.8589 10.8669C17.7349 10.9847 17.7318 10.991 17.7318 11.1213C17.7318 11.3004 17.8001 11.6631 17.8427 11.712C17.8984 11.7709 18.2079 11.9243 18.3288 11.9469C18.4334 11.9732 18.5442 11.96 18.6388 11.9112V11.9099ZM14.1199 11.6656C14.3191 11.509 14.4757 11.3524 14.5634 11.2184C14.6191 11.1369 14.6222 11.1206 14.5959 11.0517C14.5502 10.9471 14.2501 10.6765 14.0835 10.5951C13.9726 10.5462 13.8549 10.5105 13.7346 10.4942L13.5291 10.4679L13.402 10.3082C13.1376 9.9818 12.9911 9.72748 12.7818 9.23449C12.5989 8.81667 12.4392 8.57237 12.1849 8.33057C12.0802 8.23285 12.0057 8.15141 12.012 8.15141C12.0251 8.15141 12.1491 8.21343 12.2926 8.2886C12.5306 8.41576 12.5601 8.42579 12.6678 8.4095C13.0562 8.36377 13.3989 7.91713 13.5229 7.29072C13.5586 7.11469 13.6306 6.93491 13.7058 6.82717C13.7089 6.82404 13.8593 6.92176 14.0353 7.04892C14.4826 7.36526 14.5803 7.41412 14.8346 7.42414C15.0012 7.43041 15.0958 7.41788 15.3959 7.34584C16.0354 7.18924 16.727 7.12722 17.148 7.18297C17.386 7.21555 17.7286 7.32016 17.983 7.44043C18.2342 7.5582 18.283 7.56446 18.3645 7.49242C18.4327 7.43354 18.4327 7.42414 18.4327 7.20552C18.4296 6.88229 18.3118 6.53338 18.1327 6.32478C18.0412 6.21704 17.7838 6.04102 17.5288 5.90696C17.4374 5.8581 17.3459 5.80924 17.2582 5.76038C17.1373 5.68834 17.0007 5.69837 16.6287 5.79609C16.1977 5.90696 16.0837 5.90696 15.5913 5.7798C15.1735 5.67519 15.1478 5.67206 14.7362 5.7372C14.5176 5.76978 13.9695 5.75036 13.7866 5.7015C13.6951 5.67519 13.6037 5.64951 13.516 5.61693C13.3563 5.55492 13.0788 5.54489 12.8276 5.59062C12.3283 5.67895 11.9499 5.94956 11.8128 6.31789C11.7407 6.50394 11.7507 6.59226 11.8453 6.65052C11.9957 6.74511 12.1943 7.00319 12.1943 7.10405C12.1943 7.11031 12.1454 7.06834 12.0896 7.00946C11.9493 6.86287 11.8222 6.7971 11.6718 6.7971C11.4726 6.80337 11.2935 6.92113 11.212 7.10029C11.1694 7.21429 11.1306 7.33206 11.1012 7.45296C11.0097 7.78559 10.9283 7.96224 10.7554 8.19714C10.6019 8.4095 10.5793 8.50409 10.6345 8.74213C10.7717 9.34223 11.0097 9.58403 12.0044 10.1484C12.5263 10.4454 12.7937 10.612 12.9898 10.7586C13.1401 10.8694 13.1433 10.8763 13.1301 10.9609C13.1007 11.157 13.2247 11.3687 13.4696 11.5416C13.5317 11.5842 13.5705 11.6299 13.5705 11.6625C13.5705 11.7214 13.7371 11.8028 13.8574 11.8028C13.9257 11.8028 13.9783 11.7734 14.1186 11.6656H14.1199ZM18.1427 10.5656C18.5211 10.5788 18.5405 10.5493 18.3388 10.3144C18.1264 10.0695 18.0682 9.87093 18.1465 9.65231L18.179 9.56774L18.045 9.5026C17.9993 9.48004 17.9535 9.45687 17.9078 9.44058C17.8852 9.52891 17.8621 9.61347 17.8427 9.7018C17.7938 9.901 17.7349 10.4165 17.7318 10.6352C17.7318 10.6546 17.7643 10.6483 17.8201 10.6126C17.8984 10.5669 17.9379 10.5606 18.1433 10.5669L18.1427 10.5656ZM16.8736 10.5462C17.1022 10.5331 17.3371 10.5168 17.3991 10.5067L17.5132 10.4905L17.5263 10.1152C17.5457 9.58027 17.624 9.26393 17.8558 8.75779C18.0187 8.39885 18.0907 8.08564 18.055 7.85073C18.0419 7.74988 18.0356 7.74299 17.8984 7.68411C17.6472 7.58325 17.386 7.51435 17.1185 7.47175C16.8611 7.43605 16.1037 7.45547 15.82 7.51122C15.7022 7.53064 15.4873 7.57636 15.3439 7.61207C14.9881 7.6935 14.7989 7.68411 14.5283 7.56634C14.2608 7.44857 14.091 7.34146 13.9313 7.19112C13.8041 7.07335 13.791 7.06709 13.7584 7.10655C13.7321 7.13599 13.7189 7.22432 13.7096 7.4135C13.6995 7.70415 13.6538 7.857 13.5266 8.06246C13.4972 8.10506 13.4746 8.15079 13.4546 8.19652C13.4546 8.20654 13.5523 8.32055 13.6732 8.44458C14.091 8.87868 14.2965 8.98956 14.626 8.96638C14.7337 8.95636 14.8089 8.96012 14.8089 8.97265C14.8089 8.99896 14.5966 9.16496 14.5089 9.21069C14.4663 9.23324 14.4569 9.25641 14.4631 9.30527L14.5151 9.64792C14.5446 9.84399 14.5671 9.93482 14.5966 9.96113C14.6749 10.0263 15.0795 10.2355 15.3339 10.3395C15.6665 10.4735 15.8494 10.5224 16.1037 10.545C16.4169 10.5713 16.4232 10.5713 16.8736 10.545V10.5462ZM14.1756 10.1873C14.1819 10.1772 14.1593 9.98807 14.1167 9.76945C14.0647 9.47253 14.0353 9.36478 14.0027 9.33534C13.9802 9.31592 13.8593 9.23073 13.7384 9.14303C13.5786 9.02903 13.4283 8.90186 13.288 8.76781L13.0631 8.54606L12.9422 8.60807L12.815 8.67635C12.8251 8.72834 12.8445 8.7772 12.867 8.82293C12.9027 8.90124 12.9748 9.09355 13.0268 9.25015C13.1639 9.65795 13.2717 9.85402 13.5423 10.2092L13.6432 10.3432L13.8355 10.3727C13.9432 10.389 14.051 10.4122 14.0804 10.4215C14.1261 10.441 14.1324 10.4316 14.1455 10.327C14.1518 10.2812 14.1618 10.2324 14.175 10.1866L14.1756 10.1873ZM18.3093 6.12871C18.476 6.11243 18.5054 6.08925 18.4334 6.01471C18.3876 5.96898 18.283 5.96585 18.1985 6.00468C18.1427 6.03099 18.1302 6.0241 18.0419 5.92951C17.9504 5.82866 17.9441 5.8249 17.8295 5.83806C17.7249 5.85121 17.7086 5.84808 17.6954 5.80548C17.6528 5.73345 17.604 5.67143 17.5451 5.61631C17.4699 5.53174 17.3785 5.46597 17.2745 5.424C17.0722 5.34569 16.9581 5.35572 16.7652 5.46346C16.2071 5.76665 16.2303 5.76351 15.6915 5.62633C15.1891 5.49917 14.8139 5.36887 14.693 5.28681C14.5922 5.21853 14.3767 5.14336 14.1969 5.12018C14.0629 5.10076 13.9783 5.13021 13.8511 5.23419L13.7828 5.28994L13.8449 5.39769C13.9294 5.54803 13.92 5.55742 13.7929 5.44655C13.6557 5.33254 13.4928 5.25424 13.3882 5.25048C13.313 5.25048 13.0913 5.3482 13.065 5.3908C13.0549 5.40395 13.1239 5.42024 13.2153 5.4265C13.3099 5.43652 13.4402 5.4691 13.5285 5.5048C13.7572 5.60252 13.8743 5.6351 14.0829 5.65514C14.3115 5.67769 14.7256 5.65201 14.7745 5.61255C14.8008 5.59 14.8722 5.58624 15.0225 5.59939C15.2217 5.61255 15.3032 5.63197 15.7761 5.75913C16.0505 5.8343 16.2428 5.82741 16.5691 5.73971C16.7195 5.69711 16.9087 5.65514 16.987 5.64512C17.121 5.63197 17.1467 5.63886 17.3559 5.73345C17.6886 5.88379 17.8652 5.97837 17.9629 6.06607C18.0606 6.15064 18.0738 6.15064 18.3087 6.13122L18.3093 6.12871ZM16.4495 5.55805L16.6487 5.45344L16.6424 5.2511C16.6393 5.11079 16.6324 4.9736 16.6261 4.83704L16.6099 4.62845L16.4107 4.78192C16.2929 4.87337 16.1789 4.94165 16.13 4.95168C15.9866 4.97799 15.2787 4.95168 15.213 4.91597C15.1246 4.85082 15.0432 4.77879 14.968 4.70048L14.7851 4.51444L14.782 4.62531C14.782 4.6842 14.7757 4.78505 14.7626 4.84707C14.7463 4.96483 14.7463 4.96796 14.8734 5.1277C14.9417 5.21602 14.9975 5.29433 14.9975 5.30372C14.9975 5.36574 15.9402 5.65953 16.1526 5.66266C16.2209 5.66266 16.3061 5.63322 16.4495 5.55805ZM16.0711 4.817C16.3061 4.77127 16.4201 4.60151 16.5084 4.17116C16.5998 3.70761 16.6456 2.98034 16.603 2.67027C16.5635 2.38963 16.2503 2.2656 15.6533 2.28502C15.2812 2.29817 15.1278 2.33388 15.0006 2.44162C14.9223 2.50677 14.9223 2.51366 14.8866 2.82311C14.8214 3.41696 14.9192 4.26199 15.0889 4.57833C15.1704 4.7318 15.2424 4.78693 15.3921 4.81324C15.5619 4.84268 15.9239 4.84268 16.0705 4.81637L16.0711 4.817Z" fill="black"/>
</svg>
