<svg width="25" height="24" viewBox="0 0 25 24" fill="none" xmlns="http://www.w3.org/2000/svg">
<path d="M18.8504 5.33333L17.7793 17.3319L12.9649 18.6667L8.16368 17.3338L7.09375 5.33333H18.8504Z" fill="#264DE4"/>
<path d="M16.8624 16.5679L17.7777 6.31454H12.972V17.6465L16.8624 16.5679Z" fill="#2965F1"/>
<path d="M9.54651 10.7654L9.67842 12.2372H12.9721V10.7654H9.54651Z" fill="#EBEBEB"/>
<path d="M12.9721 7.78636H12.967H9.28149L9.41529 9.25819H12.9721V7.78636Z" fill="#EBEBEB"/>
<path d="M12.9721 16.1191V14.5878L12.9657 14.5895L11.3265 14.1469L11.2217 12.973H10.4252H9.74426L9.95046 15.284L12.9654 16.1209L12.9721 16.1191Z" fill="#EBEBEB"/>
<path d="M14.7794 12.2371L14.6086 14.146L12.967 14.589V16.1203L15.9843 15.284L16.0065 15.0354L16.3523 11.1606L16.3882 10.7653L16.6539 7.78636H12.967V9.25819H15.041L14.907 10.7653H12.967V12.2371H14.7794Z" fill="white"/>
</svg>
