<?xml version="1.0" encoding="UTF-8"?>
<svg version="1.1" xmlns="http://www.w3.org/2000/svg" width="32" height="32">
<path d="M0 0 C1.9375 1.5 1.9375 1.5 3 3 C3.53625 2.505 4.0725 2.01 4.625 1.5 C7.76313998 -0.48198314 9.34873465 -0.67064058 13 0 C16.13082696 2.73738079 18.79116591 6.0349054 19.23828125 10.2421875 C19.43661741 17.27790197 19.43661741 17.27790197 17.375 20.6875 C15 22 15 22 12.0625 22.1875 C7.88702539 20.56843842 6.04381209 17.91579927 4 14 C4 13.34 4 12.68 4 12 C3.34 12 2.68 12 2 12 C1.773125 12.9075 1.54625 13.815 1.3125 14.75 C-0.22463018 18.55622711 -1.4426017 19.97875096 -5 22 C-8.1875 21.9375 -8.1875 21.9375 -11 21 C-13.70201284 16.94698074 -13.53670457 13.75715415 -13 9 C-10.19639146 1.79072089 -7.9833629 -0.85536031 0 0 Z M8 4 C7.34 5.32 6.68 6.64 6 8 C7.98 10.97 9.96 13.94 12 17 C12.99 16.67 13.98 16.34 15 16 C14.88541307 14.56163249 14.75790884 13.12429034 14.625 11.6875 C14.55539063 10.88699219 14.48578125 10.08648437 14.4140625 9.26171875 C14.10435574 6.72775559 14.10435574 6.72775559 12 4 C10.68 4 9.36 4 8 4 Z M-4 4 C-7.04577607 6.45627102 -7.9400232 7.7324112 -8.8125 11.625 C-9.27261801 14.86821309 -9.27261801 14.86821309 -8 17 C-7.01 17 -6.02 17 -5 17 C-3.48883192 15.38011249 -3.48883192 15.38011249 -2.25 13.25 C-1.80140625 12.55390625 -1.3528125 11.8578125 -0.890625 11.140625 C0.1715336 9.04520218 0.1715336 9.04520218 -0.171875 6.796875 C-0.44515625 6.20390625 -0.7184375 5.6109375 -1 5 C-1.99 4.67 -2.98 4.34 -4 4 Z " fill="#0175EF" transform="translate(13,4)"/>
</svg>
