<svg width="25" height="24" viewBox="0 0 25 24" fill="none" xmlns="http://www.w3.org/2000/svg">
<path d="M19.6388 5.33333H6.30542V18.6667H19.6388V5.33333Z" fill="#F7DF1E"/>
<path d="M15.2621 15.75C15.5307 16.1886 15.8801 16.5109 16.4981 16.5109C17.0172 16.5109 17.3489 16.2514 17.3489 15.8929C17.3489 15.4633 17.0081 15.3111 16.4367 15.0612L16.1235 14.9268C15.2193 14.5416 14.6187 14.059 14.6187 13.0389C14.6187 12.0993 15.3347 11.3839 16.4536 11.3839C17.2502 11.3839 17.8229 11.6612 18.2356 12.3871L17.26 13.0135C17.0452 12.6284 16.8134 12.4766 16.4536 12.4766C16.0866 12.4766 15.854 12.7094 15.854 13.0135C15.854 13.3894 16.0869 13.5416 16.6244 13.7744L16.9376 13.9086C18.0022 14.3651 18.6033 14.8305 18.6033 15.8768C18.6033 17.0049 17.7171 17.6229 16.5271 17.6229C15.3635 17.6229 14.6117 17.0684 14.2439 16.3416L15.2621 15.75ZM10.8361 15.8586C11.0329 16.2078 11.2119 16.5031 11.6424 16.5031C12.054 16.5031 12.3137 16.342 12.3137 15.7158V11.4554H13.5666V15.7327C13.5666 17.03 12.806 17.6205 11.6957 17.6205C10.6926 17.6205 10.1116 17.1014 9.81616 16.4761L10.8361 15.8586Z" fill="black"/>
</svg>
