<svg width="25" height="24" viewBox="0 0 25 24" fill="none" xmlns="http://www.w3.org/2000/svg">
<path d="M9.45154 10.0853H11.9663V10.2842H9.68206V11.7813H11.8301V11.9802H9.68206V13.6239H11.9925V13.8228H9.45154V10.0853ZM12.1916 10.0853H12.4588L13.6429 11.729L14.8531 10.0853L16.4992 7.99739L13.7948 11.9017L15.1884 13.8228H14.9107L13.6429 12.0745L12.3697 13.8228H12.0973L13.5014 11.9017L12.1916 10.0853ZM15.2879 10.2842V10.0853H18.1538V10.2842H16.8335V13.8228H16.603V10.2842H15.2879Z" fill="black"/>
<path d="M6.30542 10.0853H6.59357L10.567 16.0026L8.92499 13.8228L6.54642 10.3679L6.53594 13.8228H6.30542V10.0853Z" fill="black"/>
<path d="M18.1305 13.5639C18.1782 13.5639 18.2129 13.5276 18.2129 13.4806C18.2129 13.4337 18.1782 13.3974 18.1305 13.3974C18.0834 13.3974 18.0481 13.4337 18.0481 13.4806C18.0481 13.5276 18.0834 13.5639 18.1305 13.5639ZM18.357 13.3449C18.357 13.4834 18.4574 13.5739 18.6037 13.5739C18.7596 13.5739 18.8538 13.4806 18.8538 13.3186V12.7482H18.7282V13.3181C18.7282 13.408 18.6828 13.4561 18.6026 13.4561C18.5308 13.4561 18.4821 13.4114 18.4804 13.3449H18.357ZM19.0181 13.3376C19.027 13.4818 19.1476 13.5739 19.327 13.5739C19.5188 13.5739 19.6388 13.4773 19.6388 13.3231C19.6388 13.2018 19.5703 13.1348 19.4044 13.0962L19.3152 13.0745C19.2098 13.0499 19.1672 13.0169 19.1672 12.9594C19.1672 12.8867 19.2334 12.8392 19.3326 12.8392C19.4268 12.8392 19.4919 12.8856 19.5036 12.9599H19.6259C19.6186 12.8241 19.4986 12.7286 19.3343 12.7286C19.1577 12.7286 19.0399 12.8241 19.0399 12.9677C19.0399 13.0862 19.1067 13.1566 19.253 13.1907L19.3573 13.2158C19.4644 13.241 19.5115 13.2778 19.5115 13.3393C19.5115 13.4108 19.4375 13.4628 19.3365 13.4628C19.2283 13.4628 19.1532 13.4142 19.1425 13.3376H19.0181Z" fill="black"/>
</svg>
