<svg width="25" height="24" viewBox="0 0 25 24" fill="none" xmlns="http://www.w3.org/2000/svg">
<path d="M12.4262 5.47559C12.7568 5.28636 13.1874 5.2855 13.5177 5.47559C15.1795 6.4146 16.8418 7.35214 18.5034 8.29172C18.8159 8.46776 19.0249 8.81555 19.0217 9.17565V14.8251C19.0241 15.2001 18.7944 15.5562 18.4647 15.7283C16.8083 16.6621 15.1528 17.5971 13.4968 18.5309C13.1593 18.7238 12.7201 18.709 12.3932 18.5002C11.8966 18.2124 11.3992 17.9259 10.9025 17.6383C10.8011 17.5778 10.6867 17.5297 10.615 17.4313C10.6784 17.3459 10.7916 17.3353 10.8836 17.298C11.0909 17.2321 11.2813 17.1263 11.4717 17.0236C11.5199 16.9906 11.5787 17.0033 11.6248 17.0328C12.0494 17.2762 12.4703 17.5268 12.8964 17.7679C12.9873 17.8204 13.0793 17.7507 13.157 17.7074C14.7824 16.7888 16.4098 15.8736 18.0349 14.9547C18.0951 14.9257 18.1284 14.8618 18.1235 14.7958C18.1246 12.9322 18.1238 11.0682 18.1241 9.20461C18.1309 9.12977 18.0876 9.06096 18.02 9.03034C16.3694 8.10077 14.7196 7.16979 13.0693 6.23999C13.0407 6.22033 13.0068 6.20979 12.9721 6.20974C12.9374 6.20969 12.9035 6.22013 12.8749 6.23971C11.2245 7.16979 9.57508 8.10163 7.92476 9.03114C7.85733 9.06182 7.81208 9.12949 7.8201 9.20461C7.82039 11.0682 7.8201 12.9322 7.8201 14.7961C7.81724 14.8283 7.82431 14.8606 7.84035 14.8886C7.8564 14.9167 7.88066 14.9391 7.90985 14.953C8.35025 15.2027 8.79121 15.4507 9.23189 15.6996C9.48016 15.8332 9.78498 15.9126 10.0585 15.8102C10.2999 15.7236 10.4691 15.4773 10.4645 15.221C10.4667 13.3683 10.4633 11.5152 10.4662 9.66277C10.4601 9.58052 10.5382 9.51257 10.6181 9.52031C10.8297 9.51888 11.0416 9.51746 11.2532 9.52088C11.3416 9.51888 11.4023 9.60745 11.3914 9.69031C11.3906 11.5548 11.3937 13.4193 11.39 15.2838C11.3906 15.7807 11.1864 16.3214 10.7268 16.5645C10.1606 16.8579 9.46069 16.7957 8.90129 16.5144C8.41701 16.2727 7.95487 15.9874 7.47919 15.7285C7.14863 15.5574 6.92008 15.1999 6.9224 14.8251V9.17565C6.91894 8.8081 7.13629 8.45398 7.45853 8.28051C9.1146 7.34592 10.7704 6.41061 12.4262 5.47559Z" fill="#8CC84B"/>
<path d="M13.8709 9.38899C14.5932 9.3425 15.3664 9.36145 16.0164 9.71727C16.5196 9.98994 16.7986 10.5622 16.8075 11.1213C16.7934 11.1967 16.7146 11.2383 16.6426 11.2331C16.433 11.2328 16.2234 11.236 16.0139 11.2317C15.925 11.2351 15.8733 11.1531 15.8622 11.0745C15.8019 10.8071 15.6561 10.5421 15.4043 10.4131C15.0178 10.2196 14.5697 10.2293 14.1482 10.2334C13.8405 10.2497 13.5097 10.2763 13.249 10.4573C13.0489 10.5943 12.9881 10.871 13.0596 11.0938C13.1269 11.2538 13.3116 11.3054 13.4627 11.353C14.3331 11.5806 15.2555 11.558 16.1093 11.8576C16.4628 11.9797 16.8086 12.2171 16.9296 12.5872C17.0879 13.0833 17.0185 13.6762 16.6656 14.0745C16.3794 14.4022 15.9625 14.5805 15.5468 14.6774C14.9937 14.8007 14.4197 14.8039 13.8581 14.7491C13.3299 14.6889 12.7803 14.5501 12.3726 14.1903C12.0239 13.8875 11.8536 13.4159 11.8705 12.9606C11.8746 12.8837 11.9511 12.8301 12.0248 12.8364C12.2358 12.8347 12.4468 12.8341 12.6579 12.8367C12.7422 12.8307 12.8046 12.9035 12.809 12.983C12.8479 13.2378 12.9437 13.5053 13.1659 13.6564C13.5948 13.9331 14.133 13.9142 14.6241 13.9219C15.031 13.9039 15.4877 13.8984 15.8198 13.6295C15.9949 13.4761 16.0468 13.2195 15.9995 12.9987C15.9482 12.8123 15.7532 12.7255 15.5858 12.6687C14.7265 12.3969 13.7938 12.4955 12.9428 12.1881C12.5974 12.066 12.2633 11.8352 12.1306 11.4803C11.9454 10.978 12.0302 10.3566 12.4201 9.97185C12.8003 9.5891 13.3491 9.4417 13.8709 9.38894V9.38899Z" fill="#8CC84B"/>
</svg>
