<svg width="25" height="24" viewBox="0 0 25 24" fill="none" xmlns="http://www.w3.org/2000/svg">
<circle cx="12.972" cy="12" r="12" fill="white"/>
<path d="M19.9173 10.5483C20.0542 10.1422 20.1241 9.71707 20.1242 9.28913C20.1241 8.58102 19.9329 7.88569 19.5703 7.27463C18.8417 6.02316 17.49 5.25052 16.0271 5.25052C15.7389 5.25052 15.4515 5.28055 15.1697 5.34012C14.7907 4.91875 14.3254 4.58145 13.8046 4.35045C13.2838 4.11945 12.7193 4.00001 12.1483 4H12.1226L12.113 4.00006C10.3412 4.00006 8.76991 5.12813 8.22524 6.79117C7.66143 6.90511 7.1288 7.13657 6.663 7.47006C6.19719 7.80355 5.80897 8.23138 5.5243 8.7249C5.16278 9.33964 4.97227 10.0377 4.97205 10.7484C4.97218 11.7473 5.34797 12.7106 6.02663 13.4517C5.88963 13.8578 5.81977 14.2829 5.81971 14.7109C5.81977 15.419 6.01094 16.1143 6.37355 16.7254C6.80476 17.4662 7.46329 18.0527 8.25415 18.4004C9.04502 18.748 9.92736 18.8389 10.7739 18.6598C11.153 19.0812 11.6183 19.4185 12.1392 19.6495C12.66 19.8805 13.2246 20 13.7956 20H13.8212L13.8317 19.9999C15.6044 19.9999 17.1752 18.8718 17.7199 17.2073C18.2837 17.0933 18.8163 16.8618 19.2821 16.5283C19.7479 16.1948 20.1362 15.767 20.4209 15.2735C20.782 14.6593 20.9721 13.9618 20.972 13.2517C20.9719 12.2529 20.5961 11.2896 19.9175 10.5485L19.9173 10.5483ZM13.8223 18.954H13.8181C13.1087 18.9538 12.4219 18.7082 11.877 18.26C11.9093 18.2429 11.9413 18.225 11.9729 18.2064L15.2016 16.3663C15.2822 16.321 15.3492 16.2555 15.3958 16.1764C15.4424 16.0974 15.467 16.0075 15.467 15.916V11.4217L16.8317 12.1992C16.8389 12.2027 16.8451 12.2079 16.8497 12.2143C16.8543 12.2208 16.8573 12.2283 16.8583 12.2361V15.9555C16.8564 17.6092 15.4983 18.9506 13.8223 18.954ZM7.29317 16.2025C7.02647 15.7475 6.88596 15.2312 6.88578 14.7056C6.88578 14.5342 6.90095 14.3623 6.93051 14.1934C6.95451 14.2076 6.9964 14.2328 7.02646 14.2499L10.2552 16.09C10.3357 16.1364 10.4272 16.1608 10.5204 16.1608C10.6137 16.1608 10.7052 16.1363 10.7857 16.0899L14.7276 13.8441V15.3992L14.7277 15.4018C14.7277 15.4093 14.7259 15.4167 14.7225 15.4234C14.7191 15.4301 14.7142 15.4359 14.7081 15.4404L11.4442 17.2999C10.9823 17.5621 10.4589 17.7002 9.926 17.7004C9.39257 17.7003 8.86854 17.5619 8.40645 17.299C7.94435 17.036 7.56042 16.6579 7.29317 16.2024V16.2025ZM6.44375 9.24774C6.79837 8.63999 7.3583 8.17465 8.02557 7.93315C8.02557 7.96058 8.02398 8.00918 8.02398 8.04291V11.7233L8.02392 11.7263C8.02394 11.8177 8.04846 11.9075 8.09501 11.9865C8.14155 12.0655 8.20846 12.1309 8.28893 12.1762L12.2309 14.4216L10.8662 15.1991C10.8595 15.2035 10.8518 15.2062 10.8437 15.2069C10.8357 15.2076 10.8276 15.2064 10.8202 15.2033L7.55591 13.3423C7.09445 13.0785 6.71136 12.6997 6.44502 12.2438C6.17869 11.788 6.03846 11.271 6.0384 10.7448C6.03861 10.2194 6.17843 9.70331 6.44392 9.24791L6.44375 9.24774ZM17.6562 11.8222L13.7142 9.57647L15.0789 8.79925C15.0857 8.79486 15.0934 8.79219 15.1014 8.79147C15.1095 8.79075 15.1175 8.792 15.125 8.79511L18.3892 10.6546C18.851 10.9179 19.2345 11.2965 19.5012 11.7523C19.7679 12.2082 19.9083 12.7252 19.9084 13.2515C19.9084 14.5077 19.114 15.6318 17.9194 16.0656V12.2752C17.9196 12.2738 17.9196 12.2723 17.9196 12.2709C17.9196 12.1799 17.8952 12.0905 17.849 12.0117C17.8027 11.9329 17.7362 11.8676 17.6562 11.8222ZM19.0145 9.8051C18.9828 9.78592 18.9508 9.76711 18.9186 9.74868L15.6899 7.90846C15.6093 7.86218 15.5179 7.83778 15.4247 7.83774C15.3315 7.83778 15.24 7.86218 15.1595 7.90846L11.2175 10.1543V8.59922L11.2174 8.59653C11.2174 8.58134 11.2248 8.56704 11.237 8.55794L14.501 6.70006C14.9627 6.43744 15.4862 6.29919 16.0191 6.29916C17.6973 6.29916 19.0583 7.64201 19.0583 9.2979C19.0582 9.46783 19.0436 9.63744 19.0145 9.80493V9.8051ZM10.4755 12.5767L9.11055 11.7992C9.10339 11.7957 9.09721 11.7905 9.09258 11.784C9.08795 11.7776 9.085 11.7701 9.084 11.7623V8.0428C9.08473 6.38781 10.4457 5.04607 12.1232 5.04607C12.8337 5.04622 13.5217 5.29179 14.0678 5.74018C14.0432 5.75342 14.0004 5.77677 13.9719 5.7938L10.7431 7.63397C10.6626 7.67919 10.5956 7.74466 10.549 7.82371C10.5024 7.90276 10.4778 7.99257 10.4778 8.08403V8.08699L10.4755 12.5767ZM11.2169 10.9996L12.9726 9.9991L14.7282 10.999V12.9994L12.9726 13.9993L11.2169 12.9994V10.9996Z" fill="black"/>
</svg>
