<svg width="25" height="24" viewBox="0 0 25 24" fill="none" xmlns="http://www.w3.org/2000/svg">
<path d="M12.9241 5.36801C9.53921 5.36801 9.75056 6.83588 9.75056 6.83588L9.75432 8.35663H12.9844V8.8132H8.47138C8.47138 8.8132 6.30542 8.56755 6.30542 11.9828C6.30542 15.3982 8.19592 15.2771 8.19592 15.2771H9.32416V13.6922C9.32416 13.6922 9.26334 11.8017 11.1845 11.8017H14.3882C14.3882 11.8017 16.1881 11.8308 16.1881 10.0621V7.1378C16.1881 7.1378 16.4614 5.36801 12.9241 5.36801ZM11.143 6.39069C11.2193 6.39062 11.2949 6.4056 11.3654 6.43478C11.436 6.46396 11.5001 6.50676 11.554 6.56073C11.608 6.6147 11.6508 6.67879 11.68 6.74932C11.7092 6.81985 11.7241 6.89545 11.7241 6.97178C11.7241 7.04811 11.7092 7.1237 11.68 7.19423C11.6508 7.26476 11.608 7.32885 11.554 7.38282C11.5001 7.4368 11.436 7.4796 11.3654 7.50877C11.2949 7.53795 11.2193 7.55293 11.143 7.55287C11.0667 7.55293 10.9911 7.53795 10.9205 7.50877C10.85 7.4796 10.7859 7.4368 10.7319 7.38282C10.678 7.32885 10.6352 7.26476 10.606 7.19423C10.5768 7.1237 10.5618 7.04811 10.5619 6.97178C10.5618 6.89545 10.5768 6.81985 10.606 6.74932C10.6352 6.67879 10.678 6.6147 10.7319 6.56073C10.7859 6.50676 10.85 6.46396 10.9205 6.43478C10.9911 6.4056 11.0667 6.39062 11.143 6.39069V6.39069Z" fill="url(#paint0_linear_44_5446)"/>
<path d="M13.0202 18.632C16.405 18.632 16.1937 17.1642 16.1937 17.1642L16.1899 15.6435H12.9598V15.1869H17.4728C17.4728 15.1869 19.6388 15.4325 19.6388 12.0171C19.6388 8.60182 17.7483 8.72294 17.7483 8.72294H16.62V10.3078C16.62 10.3078 16.6809 12.1983 14.7597 12.1983H11.556C11.556 12.1983 9.75612 12.1692 9.75612 13.9379V16.8623C9.75612 16.8623 9.4828 18.632 13.0201 18.632H13.0202ZM14.8013 17.6095C14.7249 17.6095 14.6493 17.5945 14.5788 17.5654C14.5083 17.5362 14.4442 17.4934 14.3902 17.4394C14.3362 17.3854 14.2934 17.3213 14.2643 17.2508C14.2351 17.1803 14.2201 17.1047 14.2202 17.0284C14.2201 16.952 14.2351 16.8764 14.2643 16.8059C14.2934 16.7354 14.3362 16.6713 14.3902 16.6173C14.4442 16.5633 14.5083 16.5205 14.5788 16.4913C14.6493 16.4621 14.7249 16.4472 14.8013 16.4472C14.8776 16.4472 14.9532 16.4621 15.0237 16.4913C15.0942 16.5205 15.1583 16.5633 15.2123 16.6173C15.2663 16.6712 15.3091 16.7353 15.3383 16.8059C15.3674 16.8764 15.3824 16.952 15.3824 17.0283C15.3824 17.1046 15.3674 17.1802 15.3383 17.2508C15.3091 17.3213 15.2663 17.3854 15.2123 17.4394C15.1583 17.4933 15.0942 17.5361 15.0237 17.5653C14.9532 17.5945 14.8776 17.6095 14.8013 17.6094V17.6095Z" fill="url(#paint1_linear_44_5446)"/>
<defs>
<linearGradient id="paint0_linear_44_5446" x1="7.58675" y1="6.56103" x2="14.1943" y2="13.1027" gradientUnits="userSpaceOnUse">
<stop stop-color="#387EB8"/>
<stop offset="1" stop-color="#366994"/>
</linearGradient>
<linearGradient id="paint1_linear_44_5446" x1="11.6425" y1="10.7617" x2="18.7383" y2="17.4696" gradientUnits="userSpaceOnUse">
<stop stop-color="#FFE052"/>
<stop offset="1" stop-color="#FFC331"/>
</linearGradient>
</defs>
</svg>
