<svg width="25" height="24" viewBox="0 0 25 24" fill="none" xmlns="http://www.w3.org/2000/svg">
<path d="M12.972 13.1755C13.6212 13.1755 14.1475 12.6492 14.1475 12C14.1475 11.3508 13.6212 10.8245 12.972 10.8245C12.3228 10.8245 11.7965 11.3508 11.7965 12C11.7965 12.6492 12.3228 13.1755 12.972 13.1755Z" fill="#61DAFB"/>
<path fill-rule="evenodd" clip-rule="evenodd" d="M7.44485 11.3815C7.17828 11.6221 7.09066 11.8319 7.09066 12C7.09066 12.1681 7.17828 12.3779 7.44485 12.6185C7.71125 12.859 8.12077 13.0952 8.66319 13.3023C9.74504 13.7154 11.2683 13.9798 12.972 13.9798C14.6757 13.9798 16.199 13.7154 17.2808 13.3023C17.8233 13.0952 18.2328 12.859 18.4992 12.6185C18.7658 12.3779 18.8534 12.1681 18.8534 12C18.8534 11.8319 18.7658 11.6221 18.4992 11.3815C18.2328 11.141 17.8233 10.9048 17.2808 10.6977C16.199 10.2846 14.6757 10.0202 12.972 10.0202C11.2683 10.0202 9.74504 10.2846 8.66319 10.6977C8.12077 10.9048 7.71125 11.141 7.44485 11.3815ZM8.36063 9.89638C9.56166 9.4378 11.1921 9.16309 12.972 9.16309C14.7519 9.16309 16.3824 9.4378 17.5834 9.89638C18.1824 10.1251 18.6966 10.4079 19.0686 10.7436C19.4404 11.0793 19.7058 11.503 19.7058 12C19.7058 12.497 19.4404 12.9207 19.0686 13.2563C18.6966 13.5921 18.1824 13.8749 17.5834 14.1036C16.3824 14.5622 14.7519 14.8369 12.972 14.8369C11.1921 14.8369 9.56166 14.5622 8.36063 14.1036C7.76161 13.8749 7.24741 13.5921 6.87545 13.2563C6.50366 12.9207 6.23828 12.497 6.23828 12C6.23828 11.503 6.50366 11.0793 6.87545 10.7436C7.24741 10.4079 7.76161 10.1251 8.36063 9.89638Z" fill="#61DAFB"/>
<path fill-rule="evenodd" clip-rule="evenodd" d="M10.7475 6.90498C10.4063 6.79458 10.1796 6.82305 10.0323 6.90813C9.8849 6.99321 9.74691 7.17528 9.67189 7.52602C9.59686 7.87677 9.59708 8.3492 9.68887 8.92214C9.87197 10.0649 10.4044 11.5158 11.256 12.9908C12.1076 14.4658 13.0978 15.6523 13.996 16.3822C14.4462 16.7482 14.8553 16.9846 15.1965 17.095C15.5378 17.2054 15.7645 17.1769 15.9118 17.0919C16.0592 17.0068 16.1972 16.8247 16.2722 16.474C16.3472 16.1232 16.347 15.6508 16.2552 15.0778C16.0721 13.935 15.5397 12.4842 14.6881 11.0092C13.8365 9.53422 12.8463 8.34772 11.9481 7.61776C11.4979 7.25179 11.0888 7.01539 10.7475 6.90498ZM12.4854 6.95413C13.4836 7.76538 14.5371 9.04057 15.4273 10.5824C16.3175 12.1243 16.8951 13.6743 17.0986 14.9443C17.2001 15.5778 17.2123 16.1648 17.1074 16.655C17.0026 17.1453 16.7684 17.5857 16.3398 17.8331C15.9112 18.0806 15.4127 18.0632 14.9357 17.9089C14.4588 17.7546 13.9565 17.4505 13.4586 17.0458C12.4605 16.2346 11.407 14.9594 10.5168 13.4175C9.62657 11.8757 9.04899 10.3257 8.84551 9.05565C8.74401 8.42216 8.7318 7.83515 8.83665 7.34494C8.94151 6.85471 9.1757 6.4143 9.60429 6.16686C10.0329 5.91941 10.5314 5.9368 11.0084 6.09111C11.4853 6.24541 11.9876 6.54949 12.4854 6.95413Z" fill="#61DAFB"/>
<path fill-rule="evenodd" clip-rule="evenodd" d="M16.2722 7.52601C16.1971 7.17528 16.0591 6.9932 15.9118 6.90812C15.7644 6.82304 15.5377 6.79458 15.1965 6.90498C14.8552 7.01538 14.4462 7.25179 13.9959 7.61775C13.0978 8.34772 12.1075 9.53421 11.2559 11.0092C10.4043 12.4842 9.87192 13.935 9.68883 15.0778C9.59703 15.6508 9.59681 16.1232 9.67184 16.474C9.74686 16.8247 9.88485 17.0068 10.0322 17.0918C10.1796 17.1769 10.4062 17.2054 10.7475 17.095C11.0888 16.9846 11.4978 16.7482 11.9481 16.3822C12.8462 15.6523 13.8365 14.4658 14.6881 12.9908C15.5397 11.5158 16.0721 10.0649 16.2552 8.92214C16.347 8.3492 16.3472 7.87677 16.2722 7.52601ZM17.0985 9.05565C16.8951 10.3257 16.3175 11.8757 15.4273 13.4175C14.5371 14.9594 13.4836 16.2346 12.4854 17.0458C11.9875 17.4505 11.4853 17.7546 11.0083 17.9089C10.5313 18.0632 10.0328 18.0806 9.60424 17.8331C9.17565 17.5857 8.94146 17.1453 8.8366 16.655C8.73175 16.1648 8.74397 15.5778 8.84546 14.9443C9.04894 13.6743 9.62652 12.1243 10.5167 10.5824C11.4069 9.04057 12.4604 7.76538 13.4586 6.95413C13.9565 6.54949 14.4587 6.2454 14.9357 6.09111C15.4127 5.9368 15.9112 5.91941 16.3398 6.16685C16.7683 6.4143 17.0025 6.85471 17.1074 7.34494C17.2122 7.83514 17.2 8.42216 17.0985 9.05565Z" fill="#61DAFB"/>
</svg>
