<svg width="25" height="24" viewBox="0 0 25 24" fill="none" xmlns="http://www.w3.org/2000/svg">
<path d="M12.9721 8.00108C11.1943 8.00108 10.0832 8.88975 9.63867 10.6669C10.3054 9.77825 11.0832 9.44512 11.972 9.66721C12.4792 9.79392 12.8417 10.1619 13.243 10.569C13.8966 11.2323 14.653 11.9999 16.3055 11.9999C18.0832 11.9999 19.1944 11.1112 19.6388 9.33391C18.9722 10.2226 18.1944 10.5559 17.3054 10.3338C16.7984 10.2071 16.4359 9.8391 16.0346 9.43195C15.381 8.7687 14.6244 8.00108 12.9721 8.00108ZM9.63867 11.9999C7.861 11.9999 6.74975 12.8886 6.30542 14.6659C6.972 13.7772 7.7498 13.4439 8.6388 13.6662C9.14582 13.7931 9.50829 14.1609 9.90961 14.5679C10.5632 15.2311 11.3198 15.9989 12.9721 15.9989C14.7499 15.9989 15.861 15.1102 16.3055 13.3329C15.6388 14.2216 14.861 14.5549 13.9721 14.3326C13.4649 14.2061 13.1025 13.8379 12.7012 13.4309C12.0476 12.7677 11.2911 11.9999 9.63867 11.9999Z" fill="#06B6D4"/>
</svg>
