<svg width="25" height="24" viewBox="0 0 25 24" fill="none" xmlns="http://www.w3.org/2000/svg">
<path d="M6.30542 5.33333H19.6388V18.6667H6.30542V5.33333Z" fill="#017ACB"/>
<path d="M12.7076 10.2708H13.3471V11.375H11.618V16.2875L11.5721 16.3C11.5096 16.3167 10.6867 16.3167 10.5096 16.2979L10.368 16.2854V11.375H8.63879V10.2708L9.18671 10.2646C9.48671 10.2604 10.2575 10.2604 10.8992 10.2646C11.5409 10.2687 12.3534 10.2708 12.7076 10.2708ZM17.5888 15.7667C17.3346 16.0354 17.0617 16.1854 16.6076 16.3083C16.4096 16.3625 16.3763 16.3646 15.9305 16.3625C15.4846 16.3604 15.4492 16.3604 15.2326 16.3042C14.6721 16.1604 14.2201 15.8792 13.9117 15.4812C13.8242 15.3687 13.6805 15.1354 13.6805 15.1062C13.6805 15.0979 13.7013 15.0792 13.7284 15.0667C13.7555 15.0542 13.8117 15.0187 13.8576 14.9917C13.9034 14.9646 13.9867 14.9146 14.043 14.8854C14.0992 14.8562 14.2617 14.7604 14.4034 14.675C14.5451 14.5896 14.6742 14.5208 14.6888 14.5208C14.7034 14.5208 14.7305 14.55 14.7513 14.5854C14.8763 14.7958 15.168 15.0646 15.3742 15.1562C15.5013 15.2104 15.7826 15.2708 15.918 15.2708C16.043 15.2708 16.2721 15.2167 16.3951 15.1604C16.5263 15.1 16.593 15.0396 16.6721 14.9187C16.7263 14.8333 16.7326 14.8104 16.7305 14.6479C16.7305 14.4979 16.7221 14.4562 16.6805 14.3875C16.5638 14.1958 16.4055 14.0958 15.7638 13.8125C15.1013 13.5187 14.8034 13.3437 14.5617 13.1083C14.3826 12.9333 14.3471 12.8854 14.2346 12.6667C14.0888 12.3854 14.0701 12.2937 14.068 11.875C14.0659 11.5812 14.0721 11.4854 14.1034 11.3854C14.1471 11.2354 14.2888 10.9458 14.3534 10.8729C14.4867 10.7167 14.5346 10.6687 14.6284 10.5917C14.9117 10.3583 15.3534 10.2042 15.7763 10.1896C15.8242 10.1896 15.9826 10.1979 16.1305 10.2083C16.5555 10.2437 16.8451 10.3479 17.1242 10.5708C17.3346 10.7375 17.6534 11.1292 17.6221 11.1812C17.6013 11.2125 16.7701 11.7667 16.7159 11.7833C16.6826 11.7937 16.6596 11.7812 16.6138 11.7271C16.3305 11.3875 16.2159 11.3146 15.9409 11.2979C15.7451 11.2854 15.6409 11.3083 15.5096 11.3958C15.3721 11.4875 15.3055 11.6271 15.3055 11.8208C15.3076 12.1042 15.4159 12.2375 15.8159 12.4354C16.0742 12.5625 16.2951 12.6667 16.3117 12.6667C16.3367 12.6667 16.8721 12.9333 17.0117 13.0167C17.6617 13.3979 17.9263 13.7896 17.9951 14.4646C18.0451 14.9729 17.9013 15.4375 17.5888 15.7667Z" fill="white"/>
</svg>
